<mxfile host="app.diagrams.net" agent="Mozilla/5.0 (Windows NT 10.0; Win64; x64) AppleWebKit/537.36 (KHTML, like Gecko) Chrome/139.0.0.0 Safari/537.36 Edg/139.0.0.0" version="28.1.2">
  <diagram name="第 1 页" id="5D_tEZuVCd-yNixMDMQ4">
    <mxGraphModel dx="1378" dy="764" grid="1" gridSize="10" guides="1" tooltips="1" connect="1" arrows="1" fold="1" page="1" pageScale="1" pageWidth="827" pageHeight="1169" math="0" shadow="0">
      <root>
        <mxCell id="0" />
        <mxCell id="1" parent="0" />
        <mxCell id="GTZesPYzTB7N5YFkYwuV-1" value="" style="rounded=0;whiteSpace=wrap;html=1;" vertex="1" parent="1">
          <mxGeometry x="70" y="60" width="120" height="740" as="geometry" />
        </mxCell>
        <mxCell id="GTZesPYzTB7N5YFkYwuV-2" value="信息安全保系" style="rounded=0;whiteSpace=wrap;html=1;" vertex="1" parent="1">
          <mxGeometry x="80" y="80" width="90" height="40" as="geometry" />
        </mxCell>
        <mxCell id="GTZesPYzTB7N5YFkYwuV-3" value="物理安全" style="rounded=0;whiteSpace=wrap;html=1;" vertex="1" parent="1">
          <mxGeometry x="80" y="200" width="90" height="40" as="geometry" />
        </mxCell>
        <mxCell id="GTZesPYzTB7N5YFkYwuV-4" value="网络安全&lt;span style=&quot;color: rgba(0, 0, 0, 0); font-family: monospace; font-size: 0px; text-align: start; text-wrap-mode: nowrap;&quot;&gt;%3CmxGraphModel%3E%3Croot%3E%3CmxCell%20id%3D%220%22%2F%3E%3CmxCell%20id%3D%221%22%20parent%3D%220%22%2F%3E%3CmxCell%20id%3D%222%22%20value%3D%22%E7%89%A9%E7%90%86%E5%AE%89%E5%85%A8%22%20style%3D%22rounded%3D0%3BwhiteSpace%3Dwrap%3Bhtml%3D1%3B%22%20vertex%3D%221%22%20parent%3D%221%22%3E%3CmxGeometry%20x%3D%2250%22%20y%3D%22130%22%20width%3D%2290%22%20height%3D%2240%22%20as%3D%22geometry%22%2F%3E%3C%2FmxCell%3E%3C%2Froot%3E%3C%2FmxGraphModel%3E&lt;/span&gt;" style="rounded=0;whiteSpace=wrap;html=1;" vertex="1" parent="1">
          <mxGeometry x="80" y="320" width="90" height="40" as="geometry" />
        </mxCell>
        <mxCell id="GTZesPYzTB7N5YFkYwuV-5" value="应用安全" style="rounded=0;whiteSpace=wrap;html=1;" vertex="1" parent="1">
          <mxGeometry x="80" y="450" width="90" height="40" as="geometry" />
        </mxCell>
        <mxCell id="GTZesPYzTB7N5YFkYwuV-6" value="数据安全" style="rounded=0;whiteSpace=wrap;html=1;" vertex="1" parent="1">
          <mxGeometry x="80" y="590" width="90" height="40" as="geometry" />
        </mxCell>
        <mxCell id="GTZesPYzTB7N5YFkYwuV-7" value="" style="rounded=0;whiteSpace=wrap;html=1;" vertex="1" parent="1">
          <mxGeometry x="220" y="60" width="120" height="740" as="geometry" />
        </mxCell>
        <mxCell id="GTZesPYzTB7N5YFkYwuV-8" value="标准规范体系" style="rounded=0;whiteSpace=wrap;html=1;" vertex="1" parent="1">
          <mxGeometry x="235" y="80" width="90" height="40" as="geometry" />
        </mxCell>
        <mxCell id="GTZesPYzTB7N5YFkYwuV-9" value="技术应用标准" style="rounded=0;whiteSpace=wrap;html=1;" vertex="1" parent="1">
          <mxGeometry x="235" y="200" width="90" height="40" as="geometry" />
        </mxCell>
        <mxCell id="GTZesPYzTB7N5YFkYwuV-10" value="软件开发标准" style="rounded=0;whiteSpace=wrap;html=1;" vertex="1" parent="1">
          <mxGeometry x="235" y="320" width="90" height="40" as="geometry" />
        </mxCell>
        <mxCell id="GTZesPYzTB7N5YFkYwuV-11" value="数据应用标准" style="rounded=0;whiteSpace=wrap;html=1;" vertex="1" parent="1">
          <mxGeometry x="235" y="448" width="90" height="40" as="geometry" />
        </mxCell>
        <mxCell id="GTZesPYzTB7N5YFkYwuV-12" value="用户层" style="rounded=0;whiteSpace=wrap;html=1;" vertex="1" parent="1">
          <mxGeometry x="380" y="60" width="120" height="60" as="geometry" />
        </mxCell>
        <mxCell id="GTZesPYzTB7N5YFkYwuV-13" value="" style="rounded=0;whiteSpace=wrap;html=1;" vertex="1" parent="1">
          <mxGeometry x="520" y="60" width="590" height="60" as="geometry" />
        </mxCell>
        <mxCell id="GTZesPYzTB7N5YFkYwuV-14" value="陕西省地市市场监督管理局" style="rounded=0;whiteSpace=wrap;html=1;" vertex="1" parent="1">
          <mxGeometry x="535" y="70" width="90" height="40" as="geometry" />
        </mxCell>
        <mxCell id="GTZesPYzTB7N5YFkYwuV-15" value="社会公众" style="rounded=0;whiteSpace=wrap;html=1;" vertex="1" parent="1">
          <mxGeometry x="680" y="70" width="90" height="40" as="geometry" />
        </mxCell>
        <mxCell id="GTZesPYzTB7N5YFkYwuV-16" value="政务服务网企业用户" style="rounded=0;whiteSpace=wrap;html=1;" vertex="1" parent="1">
          <mxGeometry x="850" y="70" width="90" height="40" as="geometry" />
        </mxCell>
        <mxCell id="GTZesPYzTB7N5YFkYwuV-17" value="展示层" style="rounded=0;whiteSpace=wrap;html=1;" vertex="1" parent="1">
          <mxGeometry x="380" y="150" width="120" height="60" as="geometry" />
        </mxCell>
        <mxCell id="GTZesPYzTB7N5YFkYwuV-18" value="" style="rounded=0;whiteSpace=wrap;html=1;" vertex="1" parent="1">
          <mxGeometry x="520" y="150" width="590" height="60" as="geometry" />
        </mxCell>
        <mxCell id="GTZesPYzTB7N5YFkYwuV-19" value="桌面终端" style="rounded=0;whiteSpace=wrap;html=1;" vertex="1" parent="1">
          <mxGeometry x="535" y="160" width="90" height="40" as="geometry" />
        </mxCell>
        <mxCell id="GTZesPYzTB7N5YFkYwuV-20" value="移动端" style="rounded=0;whiteSpace=wrap;html=1;" vertex="1" parent="1">
          <mxGeometry x="680" y="160" width="90" height="40" as="geometry" />
        </mxCell>
        <mxCell id="GTZesPYzTB7N5YFkYwuV-21" value="业务应用层" style="rounded=0;whiteSpace=wrap;html=1;" vertex="1" parent="1">
          <mxGeometry x="380" y="250" width="120" height="140" as="geometry" />
        </mxCell>
        <mxCell id="GTZesPYzTB7N5YFkYwuV-22" value="" style="rounded=0;whiteSpace=wrap;html=1;" vertex="1" parent="1">
          <mxGeometry x="520" y="250" width="590" height="140" as="geometry" />
        </mxCell>
        <mxCell id="GTZesPYzTB7N5YFkYwuV-23" value="食品安全监管综合业务平台" style="rounded=0;whiteSpace=wrap;html=1;" vertex="1" parent="1">
          <mxGeometry x="535" y="260" width="90" height="40" as="geometry" />
        </mxCell>
        <mxCell id="GTZesPYzTB7N5YFkYwuV-24" value="社会公众" style="rounded=0;whiteSpace=wrap;html=1;" vertex="1" parent="1">
          <mxGeometry x="535" y="330" width="90" height="40" as="geometry" />
        </mxCell>
        <mxCell id="GTZesPYzTB7N5YFkYwuV-25" value="小程序" style="rounded=0;whiteSpace=wrap;html=1;" vertex="1" parent="1">
          <mxGeometry x="830" y="160" width="90" height="40" as="geometry" />
        </mxCell>
        <mxCell id="GTZesPYzTB7N5YFkYwuV-26" value="监管档案" style="rounded=0;whiteSpace=wrap;html=1;" vertex="1" parent="1">
          <mxGeometry x="650" y="265" width="70" height="30" as="geometry" />
        </mxCell>
        <mxCell id="GTZesPYzTB7N5YFkYwuV-27" value="行政许可" style="rounded=0;whiteSpace=wrap;html=1;" vertex="1" parent="1">
          <mxGeometry x="750" y="265" width="70" height="30" as="geometry" />
        </mxCell>
        <mxCell id="GTZesPYzTB7N5YFkYwuV-28" value="日常检查" style="rounded=0;whiteSpace=wrap;html=1;" vertex="1" parent="1">
          <mxGeometry x="840" y="265" width="70" height="30" as="geometry" />
        </mxCell>
        <mxCell id="GTZesPYzTB7N5YFkYwuV-29" value="...." style="rounded=0;whiteSpace=wrap;html=1;" vertex="1" parent="1">
          <mxGeometry x="940" y="265" width="70" height="30" as="geometry" />
        </mxCell>
        <mxCell id="GTZesPYzTB7N5YFkYwuV-30" value="企业申报" style="rounded=0;whiteSpace=wrap;html=1;" vertex="1" parent="1">
          <mxGeometry x="650" y="335" width="70" height="30" as="geometry" />
        </mxCell>
        <mxCell id="GTZesPYzTB7N5YFkYwuV-31" value="公开公式" style="rounded=0;whiteSpace=wrap;html=1;" vertex="1" parent="1">
          <mxGeometry x="750" y="335" width="70" height="30" as="geometry" />
        </mxCell>
        <mxCell id="GTZesPYzTB7N5YFkYwuV-32" value="应用支持" style="rounded=0;whiteSpace=wrap;html=1;" vertex="1" parent="1">
          <mxGeometry x="380" y="410" width="120" height="110" as="geometry" />
        </mxCell>
        <mxCell id="GTZesPYzTB7N5YFkYwuV-33" value="" style="rounded=0;whiteSpace=wrap;html=1;" vertex="1" parent="1">
          <mxGeometry x="520" y="410" width="590" height="110" as="geometry" />
        </mxCell>
        <mxCell id="GTZesPYzTB7N5YFkYwuV-34" value="" style="rounded=0;whiteSpace=wrap;html=1;dashed=1;" vertex="1" parent="1">
          <mxGeometry x="535" y="423" width="210" height="77" as="geometry" />
        </mxCell>
        <mxCell id="GTZesPYzTB7N5YFkYwuV-35" value="统一认证" style="rounded=0;whiteSpace=wrap;html=1;dashed=1;" vertex="1" parent="1">
          <mxGeometry x="540" y="453" width="60" height="30" as="geometry" />
        </mxCell>
        <mxCell id="GTZesPYzTB7N5YFkYwuV-36" value="统一密码" style="rounded=0;whiteSpace=wrap;html=1;dashed=1;" vertex="1" parent="1">
          <mxGeometry x="610" y="453" width="60" height="30" as="geometry" />
        </mxCell>
        <mxCell id="GTZesPYzTB7N5YFkYwuV-37" value="统一消息" style="rounded=0;whiteSpace=wrap;html=1;dashed=1;" vertex="1" parent="1">
          <mxGeometry x="680" y="453" width="60" height="30" as="geometry" />
        </mxCell>
        <mxCell id="GTZesPYzTB7N5YFkYwuV-38" value="公共应用支持" style="rounded=0;whiteSpace=wrap;html=1;dashed=1;strokeColor=none;" vertex="1" parent="1">
          <mxGeometry x="590" y="423" width="90" height="30" as="geometry" />
        </mxCell>
        <mxCell id="GTZesPYzTB7N5YFkYwuV-39" value="" style="rounded=0;whiteSpace=wrap;html=1;dashed=1;" vertex="1" parent="1">
          <mxGeometry x="790" y="423" width="290" height="77" as="geometry" />
        </mxCell>
        <mxCell id="GTZesPYzTB7N5YFkYwuV-40" value="内部应用支持" style="rounded=0;whiteSpace=wrap;html=1;dashed=1;strokeColor=none;" vertex="1" parent="1">
          <mxGeometry x="890" y="426" width="90" height="30" as="geometry" />
        </mxCell>
        <mxCell id="GTZesPYzTB7N5YFkYwuV-41" value="对外接口服务" style="rounded=0;whiteSpace=wrap;html=1;dashed=1;" vertex="1" parent="1">
          <mxGeometry x="800" y="457" width="60" height="30" as="geometry" />
        </mxCell>
        <mxCell id="GTZesPYzTB7N5YFkYwuV-42" value="内部通知服务" style="rounded=0;whiteSpace=wrap;html=1;dashed=1;" vertex="1" parent="1">
          <mxGeometry x="900" y="454" width="60" height="33" as="geometry" />
        </mxCell>
        <mxCell id="GTZesPYzTB7N5YFkYwuV-43" value="流程引擎" style="rounded=0;whiteSpace=wrap;html=1;dashed=1;" vertex="1" parent="1">
          <mxGeometry x="990" y="457" width="60" height="30" as="geometry" />
        </mxCell>
        <mxCell id="GTZesPYzTB7N5YFkYwuV-44" value="数据资源层" style="rounded=0;whiteSpace=wrap;html=1;" vertex="1" parent="1">
          <mxGeometry x="380" y="540" width="120" height="80" as="geometry" />
        </mxCell>
        <mxCell id="GTZesPYzTB7N5YFkYwuV-54" value="信创提供数据库服务" style="rounded=0;whiteSpace=wrap;html=1;" vertex="1" parent="1">
          <mxGeometry x="520" y="540" width="590" height="80" as="geometry" />
        </mxCell>
        <mxCell id="GTZesPYzTB7N5YFkYwuV-55" value="基础设置" style="rounded=0;whiteSpace=wrap;html=1;" vertex="1" parent="1">
          <mxGeometry x="380" y="650" width="120" height="90" as="geometry" />
        </mxCell>
        <mxCell id="GTZesPYzTB7N5YFkYwuV-56" value="信创提供基础设施" style="rounded=0;whiteSpace=wrap;html=1;" vertex="1" parent="1">
          <mxGeometry x="520" y="650" width="590" height="90" as="geometry" />
        </mxCell>
      </root>
    </mxGraphModel>
  </diagram>
</mxfile>
